# xmcd CD database file
#
# Track frame offsets:
#	150
#	9387
#	22487
#	35712
#	46577
#	59339
#	71404
#	83749
#	94575
#	105820
#	118542
#	137199
#	152596
#	163448
#	173735
#	183678
#	197503
#	207245
#	220280
#	231852
#	248292
#	261562
#
# Disc length: 3636 seconds
#
# Revision: 0
# Processed by: cddbd v1.4PL0 Copyright (c) Steve Scherf et al.
# Submitted via: CDex 1.50Beta6
#
DISCID=2f0e3216
DTITLE=Charley Pride - 22 All-Time Greatest Hits
DYEAR=2002
DGENRE=Country
TTITLE0=Kiss An Angel Good Morning
TTITLE1=Mountain of Love
TTITLE2=All I Have to Offer You (is me)
TTITLE3=Is Anybody Goin' to San Antone
TTITLE4=I Don't Think She's in Love Anymore
TTITLE5=Kaw-Liga
TTITLE6=Crystal Chandelier
TTITLE7=Mississippi Cotton Picking Delta Town
TTITLE8=I'm Just Me
TTITLE9=She's Too Good to be True
TTITLE10=Where Do I Put Her Memory
TTITLE11=Burgers and Fries
TTITLE12=Does My Ring Hurt Your Finger
TTITLE13=I Know One
TTITLE14=Just Between You and Me
TTITLE15=Never Been So Loved
TTITLE16=Someone Loves You Honey
TTITLE17=Afraid of Losing You Again
TTITLE18=She's Just an Old Love Turned Memory
TTITLE19=Roll on Mississippi
TTITLE20=Amazing Love
TTITLE21=Missin' You
EXTD=YEAR: 2002
EXTT0=
EXTT1=
EXTT2=
EXTT3=
EXTT4=
EXTT5=
EXTT6=
EXTT7=
EXTT8=
EXTT9=
EXTT10=
EXTT11=
EXTT12=
EXTT13=
EXTT14=
EXTT15=
EXTT16=
EXTT17=
EXTT18=
EXTT19=
EXTT20=
EXTT21=
PLAYORDER=
